<?xml version="1.0" encoding="utf-8"?>
<!-- Generator: Adobe Illustrator 16.0.3, SVG Export Plug-In . SVG Version: 6.00 Build 0)  -->
<!DOCTYPE svg PUBLIC "-//W3C//DTD SVG 1.1//EN" "http://www.w3.org/Graphics/SVG/1.1/DTD/svg11.dtd">
<svg version="1.1" id="Capa_1" xmlns="http://www.w3.org/2000/svg" xmlns:xlink="http://www.w3.org/1999/xlink" x="0px" y="0px"
	 width="512.333px" height="69.333px" viewBox="0 0 512.333 69.333" enable-background="new 0 0 512.333 69.333"
	 xml:space="preserve">
<g>
	<rect y="5.667" fill="none" width="549" height="189.333"/>
	<path fill="#2C365D" d="M56.14,8.607l-9.8,49h-9.03l4.13-20.791H16.1l-4.13,20.791h-9.1l9.8-49h9.1l-3.99,20.09h25.34l3.99-20.09
		H56.14z"/>
	<path fill="#2C365D" d="M97.3,41.507H67.62c0.14,6.114,3.733,9.17,10.78,9.17c2.146,0,4.153-0.338,6.02-1.015
		c1.866-0.676,3.453-1.621,4.76-2.835l3.64,6.09c-1.914,1.728-4.212,3.022-6.895,3.885c-2.684,0.863-5.495,1.296-8.435,1.296
		c-3.734,0-6.989-0.677-9.765-2.031c-2.777-1.353-4.912-3.277-6.405-5.774c-1.494-2.496-2.24-5.378-2.24-8.646
		c0-4.152,0.921-7.897,2.765-11.234c1.843-3.336,4.41-5.938,7.7-7.805c3.29-1.866,6.988-2.8,11.095-2.8
		c5.226,0,9.403,1.459,12.53,4.375c3.125,2.917,4.69,6.919,4.69,12.005C97.86,38.007,97.673,39.781,97.3,41.507z M72.695,29.187
		c-2.077,1.587-3.512,3.757-4.305,6.51h21.42c0.046-2.8-0.805-4.981-2.555-6.545c-1.75-1.563-4.095-2.345-7.035-2.345
		S74.771,27.601,72.695,29.187z"/>
	<path fill="#2C365D" d="M146.019,20.227l-7.42,37.38h-8.33l0.77-3.851c-3.267,2.894-7.327,4.341-12.18,4.341
		c-3.08,0-5.869-0.654-8.365-1.961c-2.497-1.306-4.469-3.207-5.915-5.705c-1.447-2.496-2.17-5.425-2.17-8.785
		c0-4.152,0.921-7.897,2.765-11.234c1.843-3.336,4.363-5.938,7.56-7.805c3.196-1.866,6.778-2.8,10.745-2.8
		c5.973,0,10.22,1.984,12.74,5.95l1.05-5.53H146.019z M127.714,48.822c1.936-1.19,3.465-2.846,4.585-4.971
		c1.12-2.123,1.68-4.537,1.68-7.244c0-2.94-0.864-5.238-2.59-6.896c-1.727-1.656-4.154-2.485-7.28-2.485
		c-2.474,0-4.679,0.595-6.615,1.785c-1.937,1.19-3.465,2.847-4.585,4.97c-1.12,2.124-1.68,4.54-1.68,7.245
		c0,2.94,0.863,5.239,2.59,6.896c1.726,1.657,4.153,2.485,7.28,2.485C123.572,50.607,125.777,50.012,127.714,48.822z"/>
	<path fill="#2C365D" d="M160.438,5.667h8.75l-10.36,51.94h-8.75L160.438,5.667z"/>
	<path fill="#2C365D" d="M184.446,45.077c-0.094,0.747-0.14,1.284-0.14,1.61c0,2.799,1.47,4.199,4.41,4.199
		c1.82,0,3.453-0.49,4.9-1.47l1.54,6.44c-2.38,1.494-5.39,2.24-9.03,2.24c-3.22,0-5.81-0.887-7.77-2.66
		c-1.96-1.773-2.94-4.224-2.94-7.351c0-1.026,0.093-2.006,0.28-2.94l3.57-17.64h-6.09l1.4-7h6.09l1.68-8.54h8.75l-1.75,8.54h10.08
		l-1.4,7h-10.08L184.446,45.077z"/>
	<path fill="#2C365D" d="M239.57,23.097c2.45,2.194,3.675,5.32,3.675,9.38c0,1.12-0.164,2.589-0.49,4.41l-4.129,20.721h-8.75
		l4.06-20.51c0.186-0.934,0.28-1.891,0.28-2.871c0-4.526-2.497-6.79-7.49-6.79c-3.22,0-5.88,0.899-7.98,2.695
		c-2.1,1.797-3.524,4.492-4.27,8.085l-3.92,19.391h-8.75l10.36-51.94h8.75l-3.64,18.27c3.22-2.753,7.326-4.13,12.32-4.13
		C233.795,19.807,237.121,20.904,239.57,23.097z"/>
	<path fill="#2C365D" d="M307.646,47.177l4.689,5.601l-5.809,5.6l-4.691-5.529c-4.947,3.639-10.453,5.459-16.52,5.459
		c-3.314,0-6.23-0.49-8.75-1.47s-4.48-2.368-5.881-4.165c-1.398-1.796-2.1-3.908-2.1-6.335c0-3.36,1.178-6.323,3.535-8.89
		c2.355-2.566,5.916-4.993,10.676-7.28c-2.24-2.94-3.361-5.88-3.361-8.82c0-2.706,0.678-5.063,2.031-7.07
		c1.354-2.006,3.195-3.546,5.529-4.62c2.334-1.073,4.945-1.61,7.84-1.61c3.686,0,6.662,0.852,8.926,2.555
		c2.262,1.704,3.395,4.049,3.395,7.035c0,2.94-1.039,5.507-3.115,7.7c-2.076,2.194-5.262,4.317-9.555,6.37l8.471,10.01
		c1.68-2.333,3.172-5.133,4.479-8.4l6.721,2.31C312.335,40.247,310.165,44.098,307.646,47.177z M297.286,47.457l-10.432-12.391
		c-3.359,1.588-5.785,3.127-7.279,4.621s-2.24,3.219-2.24,5.18c0,1.914,0.758,3.441,2.275,4.585
		c1.516,1.144,3.697,1.715,6.545,1.715C290.122,51.167,293.831,49.932,297.286,47.457z M289.411,15.992
		c-1.285,1.145-1.926,2.649-1.926,4.515c0,0.934,0.221,1.89,0.666,2.87c0.441,0.98,1.199,2.147,2.273,3.5
		c3.547-1.586,5.973-2.998,7.281-4.235c1.305-1.236,1.959-2.671,1.959-4.305c0-1.166-0.455-2.135-1.365-2.905
		s-2.158-1.155-3.744-1.155C292.409,14.277,290.694,14.849,289.411,15.992z"/>
	<path fill="#2C365D" d="M350.8,55.682c-3.57-1.75-6.313-4.211-8.225-7.385c-1.914-3.173-2.871-6.813-2.871-10.92
		c0-5.506,1.26-10.5,3.781-14.98c2.52-4.48,6.064-8.015,10.639-10.605s9.824-3.885,15.75-3.885c4.246,0,7.992,0.7,11.236,2.1
		c3.242,1.4,5.705,3.43,7.385,6.09l-6.58,5.53c-2.754-3.826-6.977-5.74-12.67-5.74c-4.061,0-7.631,0.934-10.711,2.8
		c-3.08,1.867-5.459,4.399-7.139,7.595c-1.682,3.197-2.521,6.709-2.521,10.535c0,4.154,1.33,7.445,3.99,9.871s6.439,3.64,11.34,3.64
		c5.646,0,10.291-1.89,13.93-5.671l5.32,5.74c-2.334,2.66-5.203,4.645-8.609,5.951c-3.406,1.305-7.188,1.959-11.34,1.959
		C358.604,58.307,354.37,57.432,350.8,55.682z"/>
	<path fill="#2C365D" d="M431.265,20.227l-7.42,37.38h-8.33l0.77-3.851c-3.266,2.894-7.326,4.341-12.18,4.341
		c-3.08,0-5.869-0.654-8.365-1.961c-2.496-1.306-4.469-3.207-5.914-5.705c-1.447-2.496-2.17-5.425-2.17-8.785
		c0-4.152,0.92-7.897,2.764-11.234c1.844-3.336,4.363-5.938,7.561-7.805c3.197-1.866,6.779-2.8,10.746-2.8
		c5.973,0,10.219,1.984,12.74,5.95l1.049-5.53H431.265z M412.96,48.822c1.936-1.19,3.465-2.846,4.584-4.971
		c1.121-2.123,1.682-4.537,1.682-7.244c0-2.94-0.865-5.238-2.59-6.896c-1.729-1.656-4.154-2.485-7.281-2.485
		c-2.475,0-4.678,0.595-6.615,1.785c-1.936,1.19-3.465,2.847-4.584,4.97c-1.121,2.124-1.68,4.54-1.68,7.245
		c0,2.94,0.861,5.239,2.59,6.896c1.725,1.657,4.152,2.485,7.279,2.485C408.817,50.607,411.022,50.012,412.96,48.822z"/>
	<path fill="#2C365D" d="M456.079,20.997c2.355-0.793,5.168-1.19,8.436-1.19l-1.609,8.33c-0.795-0.14-1.518-0.21-2.17-0.21
		c-7.141,0-11.457,3.757-12.951,11.271l-3.709,18.41h-8.75l7.42-37.38h8.33l-0.98,4.83
		C451.728,23.144,453.722,21.791,456.079,20.997z"/>
	<path fill="#2C365D" d="M502.593,41.507h-29.68c0.141,6.114,3.734,9.17,10.781,9.17c2.145,0,4.152-0.338,6.02-1.015
		c1.865-0.676,3.453-1.621,4.76-2.835l3.641,6.09c-1.914,1.728-4.213,3.022-6.896,3.885c-2.684,0.863-5.494,1.296-8.434,1.296
		c-3.734,0-6.99-0.677-9.766-2.031c-2.777-1.353-4.912-3.277-6.404-5.774c-1.494-2.496-2.24-5.378-2.24-8.646
		c0-4.152,0.92-7.897,2.764-11.234c1.844-3.336,4.41-5.938,7.701-7.805c3.289-1.866,6.988-2.8,11.096-2.8
		c5.225,0,9.402,1.459,12.529,4.375c3.125,2.917,4.689,6.919,4.689,12.005C503.153,38.007,502.966,39.781,502.593,41.507z
		 M477.989,29.187c-2.078,1.587-3.512,3.757-4.305,6.51h21.42c0.045-2.8-0.807-4.981-2.557-6.545
		c-1.75-1.563-4.094-2.345-7.035-2.345C482.573,26.807,480.065,27.601,477.989,29.187z"/>
</g>
<g>
</g>
<g>
</g>
<g>
</g>
<g>
</g>
<g>
</g>
</svg>
