<?xml version="1.0" encoding="utf-8"?>
<!-- Generator: Adobe Illustrator 16.0.3, SVG Export Plug-In . SVG Version: 6.00 Build 0)  -->
<!DOCTYPE svg PUBLIC "-//W3C//DTD SVG 1.1//EN" "http://www.w3.org/Graphics/SVG/1.1/DTD/svg11.dtd">
<svg version="1.1" id="Capa_1" xmlns="http://www.w3.org/2000/svg" xmlns:xlink="http://www.w3.org/1999/xlink" x="0px" y="0px"
	 width="486.333px" height="69.333px" viewBox="0 0 486.333 69.333" enable-background="new 0 0 486.333 69.333"
	 xml:space="preserve">
<g>
	<rect y="5.667" fill="none" width="489.333" height="189.333"/>
	<path fill="#2C365D" d="M54.6,8.607l-9.8,49h-3.57l4.62-23.241H13.09L8.47,57.607H4.9l9.8-49h3.57l-4.48,22.47h32.76l4.48-22.47
		H54.6z"/>
	<path fill="#2C365D" d="M63.7,40.107c-0.094,1.026-0.14,1.797-0.14,2.31c0,3.967,1.143,7.013,3.43,9.135
		c2.286,2.124,5.646,3.185,10.08,3.185c2.566,0,4.935-0.43,7.105-1.295c2.17-0.862,3.978-2.064,5.425-3.604l1.61,2.45
		c-1.634,1.773-3.722,3.15-6.265,4.13c-2.544,0.979-5.262,1.47-8.155,1.47c-5.18,0-9.252-1.353-12.215-4.06
		c-2.964-2.706-4.445-6.464-4.445-11.271c0-4.105,0.863-7.815,2.59-11.13c1.726-3.313,4.105-5.915,7.14-7.805
		c3.033-1.89,6.44-2.835,10.22-2.835c4.76,0,8.54,1.354,11.34,4.06c2.8,2.707,4.2,6.44,4.2,11.2c0,1.12-0.14,2.475-0.42,4.061H63.7z
		 M69.754,27.507c-2.87,2.474-4.749,5.764-5.635,9.87h28.14c0.046-0.42,0.07-1.025,0.07-1.82c0-3.686-1.12-6.568-3.36-8.645
		c-2.24-2.076-5.227-3.115-8.96-3.115C76.042,23.797,72.625,25.034,69.754,27.507z"/>
	<path fill="#2C365D" d="M142.379,21.067l-7.28,36.541h-3.36l1.4-7.141c-1.774,2.334-3.979,4.154-6.615,5.46
		c-2.637,1.308-5.565,1.96-8.785,1.96c-4.76,0-8.575-1.365-11.445-4.095s-4.305-6.429-4.305-11.095c0-4.153,0.886-7.898,2.66-11.235
		c1.773-3.336,4.235-5.95,7.385-7.84c3.15-1.89,6.685-2.835,10.605-2.835c3.78,0,6.906,0.817,9.38,2.45
		c2.473,1.634,4.153,3.944,5.04,6.93l1.82-9.1H142.379z M127.224,52.357c2.59-1.586,4.631-3.791,6.125-6.615
		c1.493-2.823,2.24-6.008,2.24-9.555c0-3.874-1.132-6.883-3.395-9.031c-2.264-2.146-5.449-3.22-9.555-3.22
		c-3.267,0-6.195,0.805-8.785,2.415c-2.59,1.61-4.632,3.827-6.125,6.65c-1.494,2.824-2.24,5.984-2.24,9.484
		c0,3.875,1.131,6.885,3.395,9.031c2.263,2.146,5.448,3.219,9.555,3.219C121.705,54.736,124.634,53.943,127.224,52.357z"/>
	<path fill="#2C365D" d="M160.158,5.667h3.5l-10.36,51.94h-3.5L160.158,5.667z"/>
	<path fill="#2C365D" d="M173.948,47.037c-0.187,0.887-0.28,1.75-0.28,2.59c0,3.5,1.866,5.25,5.6,5.25
		c2.24,0,4.223-0.676,5.95-2.029l1.05,2.59c-2.007,1.633-4.62,2.449-7.84,2.449c-2.614,0-4.655-0.688-6.125-2.064
		c-1.47-1.377-2.205-3.278-2.205-5.705c0-0.98,0.093-1.913,0.28-2.801l4.69-23.239h-6.79l0.56-3.01h6.79l1.61-7.98h3.5l-1.61,7.98
		h11.62l-0.56,3.01h-11.62L173.948,47.037z"/>
	<path fill="#2C365D" d="M229.458,23.902c2.24,2.077,3.36,4.935,3.36,8.575c0,1.26-0.14,2.589-0.42,3.99l-4.2,21.141h-3.5
		l4.2-21.141c0.233-1.072,0.35-2.24,0.35-3.5c0-2.893-0.875-5.121-2.625-6.685c-1.75-1.563-4.305-2.345-7.665-2.345
		c-4.2,0-7.7,1.179-10.5,3.535c-2.8,2.357-4.644,5.775-5.53,10.254l-3.99,19.881h-3.5l10.36-51.94h3.5l-4.41,22.19
		c3.453-4.713,8.446-7.07,14.98-7.07C224.021,20.787,227.218,21.826,229.458,23.902z"/>
	<path fill="#2C365D" d="M292.806,48.577l5.74,7.56l-2.451,2.17l-5.529-7.279c-4.76,4.619-10.523,6.93-17.289,6.93
		c-4.34,0-7.807-0.991-10.396-2.975s-3.885-4.631-3.885-7.945c0-3.174,1.213-6.055,3.641-8.645c2.426-2.591,6.486-5.309,12.18-8.156
		l-0.07-0.07c-1.4-1.866-2.449-3.616-3.15-5.25c-0.699-1.633-1.049-3.266-1.049-4.9c0-3.593,1.189-6.44,3.57-8.54
		c2.379-2.1,5.506-3.15,9.379-3.15c3.033,0,5.461,0.747,7.281,2.24c1.818,1.494,2.729,3.477,2.729,5.95
		c0,1.96-0.467,3.722-1.398,5.285c-0.936,1.564-2.393,3.057-4.375,4.48c-1.984,1.424-4.727,2.999-8.227,4.725l11.48,15.19
		c2.193-2.801,4.061-6.16,5.6-10.08l2.801,0.91C297.565,41.693,295.372,45.544,292.806,48.577z M288.815,48.646l-12.32-16.169
		c-3.547,1.774-6.334,3.395-8.365,4.865c-2.029,1.471-3.477,2.939-4.34,4.41s-1.295,3.092-1.295,4.865c0,2.52,0.98,4.55,2.941,6.09
		c1.959,1.54,4.643,2.311,8.049,2.311C279.411,55.018,284.522,52.895,288.815,48.646z M274.78,23.867
		c0.631,1.447,1.621,3.057,2.975,4.83l0.07,0.07c3.313-1.586,5.855-2.986,7.631-4.2c1.773-1.213,3.045-2.426,3.814-3.64
		c0.77-1.213,1.154-2.613,1.154-4.2c0-1.633-0.629-2.986-1.889-4.06c-1.26-1.073-2.988-1.61-5.18-1.61
		c-2.895,0-5.205,0.782-6.932,2.345c-1.727,1.564-2.59,3.652-2.59,6.265C273.835,21.021,274.151,22.421,274.78,23.867z"/>
	<path fill="#2C365D" d="M335.679,55.438c-3.383-1.681-5.949-4.037-7.699-7.07s-2.625-6.557-2.625-10.57
		c0-5.32,1.213-10.243,3.641-14.77c2.426-4.526,5.879-8.12,10.359-10.78c4.48-2.66,9.705-3.99,15.68-3.99
		c3.781,0,7.15,0.584,10.115,1.75c2.963,1.167,5.262,2.824,6.895,4.97l-2.52,2.31c-3.268-3.826-8.189-5.74-14.77-5.74
		c-5.135,0-9.66,1.179-13.58,3.535c-3.92,2.357-6.941,5.519-9.064,9.485c-2.125,3.967-3.186,8.33-3.186,13.089
		c0,5.228,1.656,9.369,4.971,12.426c3.313,3.057,8.072,4.585,14.279,4.585c6.721,0,12.109-1.96,16.17-5.88l2.17,2.449
		c-2.146,2.147-4.842,3.805-8.086,4.971c-3.244,1.167-6.754,1.75-10.533,1.75C343.134,57.957,339.063,57.117,335.679,55.438z"/>
	<path fill="#2C365D" d="M412.646,21.067l-7.281,36.541h-3.359l1.4-7.141c-1.773,2.334-3.979,4.154-6.615,5.46
		c-2.637,1.308-5.564,1.96-8.785,1.96c-4.76,0-8.574-1.365-11.445-4.095c-2.869-2.729-4.305-6.429-4.305-11.095
		c0-4.153,0.887-7.898,2.66-11.235c1.773-3.336,4.234-5.95,7.385-7.84c3.15-1.89,6.686-2.835,10.605-2.835
		c3.779,0,6.906,0.817,9.379,2.45c2.475,1.634,4.154,3.944,5.041,6.93l1.82-9.1H412.646z M397.489,52.357
		c2.59-1.586,4.631-3.791,6.125-6.615c1.494-2.823,2.24-6.008,2.24-9.555c0-3.874-1.131-6.883-3.395-9.031
		c-2.264-2.146-5.449-3.22-9.555-3.22c-3.268,0-6.195,0.805-8.785,2.415c-2.59,1.61-4.633,3.827-6.125,6.65
		c-1.494,2.824-2.24,5.984-2.24,9.484c0,3.875,1.131,6.885,3.395,9.031s5.449,3.219,9.555,3.219
		C391.972,54.736,394.899,53.943,397.489,52.357z"/>
	<path fill="#2C365D" d="M435.499,22.782c2.543-1.33,5.635-1.995,9.275-1.995l-0.631,3.43l-1.119-0.07
		c-4.154,0-7.561,1.237-10.221,3.71c-2.66,2.474-4.48,6.137-5.459,10.991l-3.781,18.76h-3.5l7.281-36.541h3.43l-1.541,7.7
		C430.866,26.107,432.954,24.112,435.499,22.782z"/>
	<path fill="#2C365D" d="M449.675,40.107c-0.094,1.026-0.141,1.797-0.141,2.31c0,3.967,1.143,7.013,3.43,9.135
		c2.287,2.124,5.646,3.185,10.08,3.185c2.566,0,4.936-0.43,7.105-1.295c2.17-0.862,3.979-2.064,5.426-3.604l1.609,2.45
		c-1.635,1.773-3.723,3.15-6.266,4.13s-5.262,1.47-8.154,1.47c-5.18,0-9.252-1.353-12.215-4.06
		c-2.965-2.706-4.445-6.464-4.445-11.271c0-4.105,0.863-7.815,2.59-11.13c1.727-3.313,4.105-5.915,7.141-7.805
		c3.033-1.89,6.439-2.835,10.219-2.835c4.762,0,8.541,1.354,11.342,4.06c2.799,2.707,4.199,6.44,4.199,11.2
		c0,1.12-0.141,2.475-0.42,4.061H449.675z M455.729,27.507c-2.869,2.474-4.748,5.764-5.635,9.87h28.141
		c0.045-0.42,0.068-1.025,0.068-1.82c0-3.686-1.119-6.568-3.359-8.645c-2.24-2.076-5.227-3.115-8.959-3.115
		C462.017,23.797,458.599,25.034,455.729,27.507z"/>
</g>
<g>
</g>
<g>
</g>
<g>
</g>
<g>
</g>
<g>
</g>
</svg>
