<?xml version="1.0" encoding="utf-8"?>
<!-- Generator: Adobe Illustrator 16.0.3, SVG Export Plug-In . SVG Version: 6.00 Build 0)  -->
<!DOCTYPE svg PUBLIC "-//W3C//DTD SVG 1.1//EN" "http://www.w3.org/Graphics/SVG/1.1/DTD/svg11.dtd">
<svg version="1.1" xmlns="http://www.w3.org/2000/svg" xmlns:xlink="http://www.w3.org/1999/xlink" x="0px" y="0px" width="500px"
	 height="500px" viewBox="0 0 500 500" enable-background="new 0 0 500 500" xml:space="preserve">
<g id="Capa_1">
	<g>
		<path fill-rule="evenodd" clip-rule="evenodd" fill="#2C365D" d="M364.021,413.648c15.965-14.965,31.929-29.928,47.445-44.469
			c0,15.59,0,32.67,0,49.75C395.667,417.025,378.973,423.162,364.021,413.648z"/>
		<path fill-rule="evenodd" clip-rule="evenodd" fill="#2C365D" d="M364.021,413.648c-2.231,2.096-4.465,4.189-9,8.447
			c0.016-0.002,0.03-0.002,0.046-0.004c1.613-1.064,2.606-2.748,4.392-3.641c-1.785,0.893-2.778,2.576-4.392,3.641
			c20.983-2.59,38.887,2.838,56.399-3.162C395.667,417.025,378.973,423.162,364.021,413.648z"/>
		<g>
			<rect x="358.958" y="418.941" fill-rule="evenodd" clip-rule="evenodd" fill="#2C365D" width="52.508" height="3.168"/>
			<path fill-rule="evenodd" clip-rule="evenodd" fill="#2C365D" d="M407.493,422.109h-52.473c1.365-0.896,2.291-2.232,3.616-3.168
				h48.856V422.109z"/>
		</g>
		<g>
			<g>
				<path fill="#2C365D" d="M410.148,417.797c-0.111-0.027-0.223-0.057-0.334-0.084c-0.133,0.982-0.266,1.965-0.398,2.947
					c0.216,0,0.431,0,0.646,0c1.78,0,1.927-2.373,0.398-2.947c-2.126-0.797-5.071-0.213-7.326-0.32
					c-3.255-0.156-6.52-0.201-9.781-0.254c-1.936-0.031-1.933,2.969,0,3c2.838,0.047,5.687,0.049,8.521,0.146
					c2.196,0.074,5.731-0.451,7.789,0.32c0.133-0.982,0.266-1.963,0.398-2.945c-0.216,0-0.431,0-0.646,0
					c-1.682,0-2.059,2.533-0.398,2.945c0.111,0.027,0.223,0.057,0.334,0.084C411.229,421.156,412.025,418.264,410.148,417.797
					L410.148,417.797z"/>
			</g>
		</g>
		<g>
			<g>
				<path fill="#2C365D" d="M398.06,416.754c-2.406,0.65-4.795,0.051-7.227,0.072c-2.754,0.023-5.511,0.234-8.27,0.248
					c-3.479,0.018-6.764,0.5-9.963-1.203c-1.862-0.992-3.437-1.971-5.494-2.492c-1.876-0.477-2.672,2.418-0.797,2.893
					c2.437,0.619,4.095,2.141,6.375,3c2.733,1.033,5.262,0.883,8.148,0.805c3.339-0.092,6.663-0.035,10-0.25
					c2.771-0.18,5.29,0.559,8.023-0.18C400.723,419.143,399.93,416.25,398.06,416.754L398.06,416.754z"/>
			</g>
		</g>
	</g>
</g>
<g id="Capa_2">
	<path fill-rule="evenodd" clip-rule="evenodd" fill="#BEBDBD" d="M411.304,91.552c0-2.186-0.134-4.379,0.002-6.556
		c0.366-5.91-2.732-7.745-8.083-7.125c-23.043,2.667-43.741,10.51-61.692,25.784c-19.322,16.441-30.724,37.447-38.041,61.163
		c-0.032,48.739-0.054,97.48-0.111,146.224c-0.003,2.326,0.143,4.68,0.039,7v14.301c0.558,3.891-0.13,7.936-0.1,11.84
		c0.192,25.068,0.081,50.139,0.081,77.914c34.797-31.699,67.181-61.41,99.865-90.785c6.081-5.467,8.231-11.316,8.202-19.412
		C411.192,238.451,411.306,165.001,411.304,91.552z"/>
</g>
<g id="Capa_3">
	<path fill-rule="evenodd" clip-rule="evenodd" fill="#D18C54" d="M303.511,91.552c0-2.186-0.134-4.379,0.002-6.556
		c0.366-5.91-2.732-7.745-8.083-7.125c-23.043,2.667-43.741,10.51-61.692,25.784c-19.322,16.441-30.724,37.447-38.041,61.163
		c-0.032,48.739-0.054,97.481-0.111,146.226c-0.001,0.986,0.024,1.979,0.047,2.971h0.139v19.65c0.119,1.549,0.081,3.117,0,4.688v0.1
		h-0.004c-0.101,1.922-0.256,3.844-0.242,5.732c0.192,25.068,0.081,50.139,0.081,77.914c34.797-31.699,67.181-61.41,99.865-90.785
		c6.081-5.467,8.231-11.316,8.202-19.412C303.399,238.452,303.513,165.002,303.511,91.552z"/>
</g>
<g id="Capa_4">
	<path fill-rule="evenodd" clip-rule="evenodd" fill="#2C365D" d="M196.521,91.699c0-2.186-0.134-4.379,0.002-6.556
		c0.366-5.91-2.732-7.745-8.083-7.125c-23.043,2.667-43.741,10.51-61.692,25.784c-19.203,16.339-30.578,37.19-37.9,60.726
		c-0.002,0.009-0.006,0.018-0.008,0.027c-0.021,0.297-0.066,0.591-0.133,0.879c-0.032,48.583-0.053,97.169-0.111,145.757
		c-0.003,2.578,0.168,5.189-0.013,7.75v13.234c0.645,3.988-0.079,8.146-0.048,12.156c0.192,25.068,0.081,50.139,0.081,77.914
		c34.797-31.699,67.181-61.41,99.865-90.785c6.081-5.467,8.231-11.316,8.202-19.412C196.41,238.598,196.523,165.148,196.521,91.699z
		"/>
	<g>
	</g>
	<g>
	</g>
	<g>
	</g>
	<g>
	</g>
	<g>
	</g>
</g>
</svg>
