<?xml version="1.0" encoding="utf-8"?>
<!-- Generator: Adobe Illustrator 16.0.3, SVG Export Plug-In . SVG Version: 6.00 Build 0)  -->
<!DOCTYPE svg PUBLIC "-//W3C//DTD SVG 1.1//EN" "http://www.w3.org/Graphics/SVG/1.1/DTD/svg11.dtd">
<svg version="1.1" xmlns="http://www.w3.org/2000/svg" xmlns:xlink="http://www.w3.org/1999/xlink" x="0px" y="0px" width="500px"
	 height="500px" viewBox="0 0 500 500" enable-background="new 0 0 500 500" xml:space="preserve">
<g id="Capa_1">
	<g>
		<path fill-rule="evenodd" clip-rule="evenodd" fill="#D08B53" d="M332.715,211.481c0.014,0.03,0.027,0.06,0.041,0.09
			C332.742,211.541,332.729,211.512,332.715,211.481z"/>
		<polygon fill-rule="evenodd" clip-rule="evenodd" fill="#D08B53" points="333.105,212.395 333.102,212.386 333.105,212.396 		"/>
		<path fill-rule="evenodd" clip-rule="evenodd" fill="#D08B53" d="M332.188,210.651c0.035,0.048,0.063,0.1,0.1,0.147
			C332.25,210.751,332.223,210.7,332.188,210.651z"/>
		<path fill-rule="evenodd" clip-rule="evenodd" fill="#D08B53" d="M330.621,209.297c5.42-19.283,12.479-37.945,21.193-55.984
			c5.424-28.939-12.898-54.259-12.678-82.496c0.039-4.854-5.961-6.751-10.111-8.483c-35.838-14.953-72.99-19.126-111.347-13.321
			c-3.942,0.599-6.785,1.982-7.844,6.022c-4.033,17.479-8.065,34.958-12.098,52.438c-4.209,31.871-8.418,63.747-12.627,95.621
			c0.224,8.133,0.449,16.263,0.674,24.396c0,0.001,0,0.003,0,0.004c6.951,18.137,11.395,36.932,14.76,56.016
			c1.796,4.186,3.509,8.406,5.409,12.544c2.831,6.155,5.099,1.979,7.426-0.494c9.162-29.781,18.28-59.579,27.51-89.34
			c3.093-9.973,4.78-19.834,1.449-30.195c-1.5-4.661-2.408-9.867,2.541-14.91c4.42,6.22,1.02,14.2,7.006,19.018
			c8.598-3.036,8.988-15.417,18.332-18.037c1.91,2.494,0.695,4.357-0.484,5.935c-26.52,35.452-34.921,77.995-46.526,119.249
			c-1.537,5.466-2.619,10.909-6.258,15.432c-1.55,28.864-1.061,57.61,2.419,86.396c1.56,12.911-0.61,26.226,2.826,39.102h-0.002
			c3.104,8.145-3.53,21.786,10.038,23.713c13.206,1.875,27.116,3.004,40.305-2.1c13.736-64.306,28.947-128.324,36.74-193.775
			C311.375,238.384,326.166,226.114,330.621,209.297z"/>
		<path fill-rule="evenodd" clip-rule="evenodd" fill="#D08B53" d="M331.498,209.922c0.057,0.05,0.1,0.104,0.154,0.157
			C331.598,210.026,331.555,209.972,331.498,209.922z"/>
		<path fill-rule="evenodd" clip-rule="evenodd" fill="#D08C54" d="M141.914,253.122c-19.252-39.994-38.504-79.991-57.753-119.987
			c-0.001,0-0.001,0-0.001,0c-13.056,16.115-20.468,35.136-27.879,54.157c0,0.003,0,0.005,0.001,0.006
			c8.209,20.417,6.216,43.174,14.511,63.569c13.479,33.146,12.748,68.546,16.453,103.245l0.001,0.004
			c-0.067,22.216,24.362,52.166,47.838,58.94c4.728-17.386,5.093-35.403,5.878-53.162c1.572-35.546,9.952-71.116,0.952-106.763
			C141.916,253.129,141.916,253.125,141.914,253.122z"/>
		<path fill-rule="evenodd" clip-rule="evenodd" fill="#D08C53" d="M333.426,213.569c0.002,0.012,0.006,0.022,0.008,0.033
			C333.432,213.592,333.428,213.581,333.426,213.569z"/>
		<path fill-rule="evenodd" clip-rule="evenodd" fill="#D08C53" d="M377.594,257.844c0.049-0.172,0.084-0.335,0.127-0.5
			C377.682,257.509,377.643,257.672,377.594,257.844z"/>
		<path fill-rule="evenodd" clip-rule="evenodd" fill="#D08C53" d="M377.881,256.63c0.037-0.208,0.07-0.415,0.098-0.617
			C377.955,256.215,377.918,256.422,377.881,256.63z"/>
		<path fill-rule="evenodd" clip-rule="evenodd" fill="#D08C53" d="M419.633,144.041c-4.039-19.782-19.564-31.149-32.977-43.747
			c-4.938-4.638-6.305,2.095-7.779,5.477c-7.895,18.087-15.688,36.217-23.512,54.332c-3.686,19.915-14.76,36.963-21.605,55.653
			c-9.855,40.67-19.826,81.316-29.521,122.025c-4.533,19.031-9.316,38.06-10.598,57.906c4.9,0.048,6.689-2.722,8.256-5.186
			c18.678-29.385,40.863-56.207,61.561-84.104c10.879-14.663,1.789-29.616,2.297-44.389c0.17-4.881-1.881-9.834-2.908-14.728
			c5.287-2.074,5.178,6.586,10.141,4.55c6.391-22.44,12.783-44.882,19.174-67.323c0.676-0.014,1.244,0.027,1.74,0.103
			c-0.5-0.075-1.061-0.117-1.736-0.103c4.182-5.832,1.051-14.262,9.283-22.324c-0.084,11.309-2.391,19.527-5.371,27.494
			c0.004-0.006,0.004-0.012,0.004-0.019c-0.166,0.499-0.359,1.008-0.568,1.527c-5.23,22.89-10.42,45.789-18.328,67.957
			c-0.613,8.114-1.227,16.229-1.813,23.962c15.645-13.324,29.43-41.017,32.398-65.177c0.615-5.025,1.824-9.979,2.764-14.961
			c3.035-19.642,6.068-39.28,9.1-58.92C419.633,144.043,419.633,144.043,419.633,144.041z"/>
		<path fill-rule="evenodd" clip-rule="evenodd" fill="#D08C53" d="M396.33,188.828c0.029-0.092,0.055-0.184,0.076-0.274
			C396.385,188.642,396.355,188.736,396.33,188.828z"/>
		<path fill-rule="evenodd" clip-rule="evenodd" fill="#D08B53" d="M215,417.89c-0.001,0.202-0.003,0.403-0.011,0.608
			C214.998,418.293,214.999,418.092,215,417.89z"/>
		<path fill-rule="evenodd" clip-rule="evenodd" fill="#D08B53" d="M214.901,416.101c0.012,0.105,0.029,0.208,0.039,0.314
			C214.931,416.309,214.914,416.206,214.901,416.101z"/>
		<path fill-rule="evenodd" clip-rule="evenodd" fill="#D08B53" d="M214.498,414.382c0.022,0.057,0.048,0.11,0.068,0.168
			C214.546,414.492,214.52,414.438,214.498,414.382z"/>
		<path fill-rule="evenodd" clip-rule="evenodd" fill="#D08B53" d="M213.709,412.807c-3.549-41.254-10.063-82.123-15.973-123.07
			c-7.778-17.844-10.189-37.156-15.255-55.743c-6.363-12.596-7.881-26.937-12.724-43.269c-7.711,38.505-8.243,73.855-12.264,108.861
			c-4.436,38.617-5.701,77.593-8.827,116.372c-0.715,8.876,5.101,11.567,10.917,14.507c14.205,7.171,29.344,11.944,44.533,16.527
			c6.618,0.096,10.41-2.065,9.801-9.789C213.28,429.114,213.732,420.942,213.709,412.807z"/>
		<path fill-rule="evenodd" clip-rule="evenodd" fill="#D08B53" d="M375.197,332.571c0.395-0.045,0.715-0.126,1.014-0.217
			C375.912,332.445,375.592,332.526,375.197,332.571z"/>
		<path fill-rule="evenodd" clip-rule="evenodd" fill="#D08B53" d="M377.771,331.246c-0.094,0.166-0.186,0.332-0.334,0.471
			C377.582,331.575,377.678,331.412,377.771,331.246z"/>
		<path fill-rule="evenodd" clip-rule="evenodd" fill="#D08B53" d="M450.539,224.868c-8.193,6.01-16.387,12.021-24.582,18.032
			c-21.041,12.079-32.596,32.482-45.455,51.757c-6.545,9.807-2.535,20.703-3.424,31.095c0.604,1.896,1.359,3.872,0.85,5.218
			c0.014-0.03,0.039-0.054,0.051-0.088c3.746,21.978,2.479,44.332,4.434,66.445c1.303,2.469,2.953,2.192,4.744,0.577
			C438.785,351.397,460.117,293.793,450.539,224.868z"/>
		<path fill-rule="evenodd" clip-rule="evenodd" fill="#D08C53" d="M373.656,332.641c-0.91-5.017-1.824-10.065-3.238-17.87
			c-0.311-0.13-0.641-0.244-1.002-0.332c-0.258-0.063-0.504-0.087-0.754-0.126c-12.043,15.64-23.482,28.692-32.549,43.199
			c-14.031,22.448-33.115,41.424-44.506,65.568c-3.9,8.26-8.156,16.586-6.496,26.286c31.033-6.526,60.324-17.155,85.955-36.433l0,0
			c0,0,0,0-0.004,0C376.047,386.304,371.74,359.373,373.656,332.641z"/>
		<path fill-rule="evenodd" clip-rule="evenodd" fill="#D08C53" d="M291.607,423.08c11.391-24.145,30.475-43.12,44.506-65.568
			c9.066-14.507,20.506-27.56,32.549-43.199c-6.393-0.972-9.508,5.959-13.121,10.425c-20.906,25.828-38.385,54.146-58.441,80.607
			c-6.174,8.144-10.588,17.522-13.678,27.314c-1.771,5.609-4.879,11.767,1.689,16.707
			C283.451,439.666,287.707,431.34,291.607,423.08z"/>
		<path fill-rule="evenodd" clip-rule="evenodd" fill="#D18D55" d="M137.436,93.02c-3.901-8.819-6.457-8.04-12.896-3.213
			c-12.842,9.632-22.685,22.113-33.684,33.504c2.999,23.095,17.253,41.33,27.803,60.834c11.44,21.15,20.248,43.272,30.053,65.042
			c0.691-0.727,1.915-1.397,1.995-2.184C155.908,194.868,159.516,142.958,137.436,93.02z"/>
		<path fill-rule="evenodd" clip-rule="evenodd" fill="#FBF7EC" d="M334.447,214.014c-0.221,0.582-0.475,1.154-0.688,1.742
			C334.01,215.165,334.24,214.583,334.447,214.014z"/>
		<path fill-rule="evenodd" clip-rule="evenodd" fill="#CE8D57" d="M199.91,66.062c0.935-4.992,2.706-10.367-5.077-11.523
			c-9.002,2.912-19.926,3.662-20.707,16.57c-1.848,30.469-5.725,60.877-4.235,91.449c0.427,8.738,0.979,18.349,9.088,24.684
			c4.563-27.527,9.128-55.053,13.692-82.583h-0.001C195.084,91.794,197.501,78.928,199.91,66.062z"/>
		<path fill-rule="evenodd" clip-rule="evenodd" fill="#CF8D56" d="M429.582,153.617c-1.59-3.231-4.65-6.471-6.375,0.37
			c-0.813,10.403-1.818,20.774-3.475,31.041c0.066-0.147,0.119-0.3,0.189-0.442c-0.07,0.143-0.123,0.295-0.189,0.442
			c-0.471,2.931-1.004,5.852-1.596,8.763c-0.262,3.177-0.623,6.418-2.143,9.304c-0.17,0.663-0.32,1.328-0.496,1.989
			c-0.055-0.098-0.129-0.172-0.186-0.266c0.555,0.893,0.973,1.958,1.41,3.003c1.324,6.495,0.84,13.08,0.586,19.626
			c-0.191,4.893,0.02,9.204,5.902,10.56c0.107,0.059,0.201,0.127,0.307,0.188c0.955-0.764,1.91-1.536,2.867-1.874
			c7.676-6.527,14.596-14.008,23.758-18.654C448.793,194.554,439.559,173.941,429.582,153.617z"/>
		<path fill-rule="evenodd" clip-rule="evenodd" fill="#CF8D56" d="M415.994,203.095c1.52-2.886,1.881-6.127,2.143-9.304
			C417.506,196.906,416.789,200.008,415.994,203.095z"/>
		<path fill-rule="evenodd" clip-rule="evenodd" fill="#CF8D56" d="M418.104,226.777c0.787-6.516,1.908-13.045,0.432-19.655
			c-0.563-1.084-1.098-2.188-1.832-3.132c-0.125-0.171-0.279-0.328-0.43-0.487c-0.102-0.109-0.221-0.207-0.33-0.311
			c-0.188,0.348-0.393,0.69-0.615,1.025c-0.217,1.603-0.43,3.202-0.654,4.803c-1.414,10.585-2.836,21.17-4.27,31.892
			c3.568,1.291,6.68-0.026,9.963-0.882c-0.148,0.027-0.297,0.053-0.445,0.053c0.148,0,0.297-0.025,0.445-0.053
			c0.15-0.038,0.303-0.085,0.459-0.121c1.213-0.416,2.426-1.539,3.641-2.46C417.617,235.391,417.553,231.333,418.104,226.777z"/>
		<path fill-rule="evenodd" clip-rule="evenodd" fill="#D08E59" d="M50.073,209.574c-4.393,33.246-4.642,66.411,6.175,98.506
			c5.546,16.458,8.024,35.085,24.362,46.052c-4.801-28.455-8.824-57.042-13.42-85.499C63.954,248.6,60.653,227.822,50.073,209.574z"
			/>
		<path fill-rule="evenodd" clip-rule="evenodd" fill="#F9F6EF" d="M197.736,289.736c-0.316-0.726-0.573-1.466-0.873-2.195
			C197.105,288.249,197.43,288.999,197.736,289.736z"/>
		<path fill-rule="evenodd" clip-rule="evenodd" fill="#CF9667" d="M346.381,73.209c31.262,13.435,30.623,15.646,12.979,48.915
			C354.023,105.982,348.924,90.948,346.381,73.209z"/>
		<path fill-rule="evenodd" clip-rule="evenodd" fill="#CD9464" d="M163.812,67.392c-0.435,17.769-3.214,33.616-6.376,49.809
			C136.667,88.984,137.56,78.187,163.812,67.392z"/>
	</g>
</g>
<g id="Capa_2" display="none">
	<path display="inline" fill-rule="evenodd" clip-rule="evenodd" fill="#FBF7EC" d="M290.994,277.73
		c-0.322-1.777-0.645-3.555-1.18-6.512c-4.067,5.33-7.945,9.695-10.996,14.578c-4.551,7.279-10.74,13.434-14.435,21.266
		c-1.265,2.678-2.646,5.379-2.106,8.525c-1.36,0.049-2.721,0.098-4.08,0.146c4.455-20.855,9.389-41.619,11.916-62.846
		c0.682-5.729,5.479-9.708,6.924-15.163c1.919-0.069,1.477,1.009,1.018,2.095c-3.196,13.191-6.43,26.373-9.574,39.576
		c-1.471,6.172-3.021,12.344-3.438,18.781c1.59,0.016,2.17-0.883,2.678-1.682c6.058-9.531,13.253-18.23,19.966-27.277
		c3.528-4.756,0.58-9.605,0.745-14.396c0.055-1.584-0.61-3.189-0.943-4.777c1.715-0.672,1.68,2.137,3.289,1.477
		c1.938-0.063,1.816,1.059,1.361,2.371c-0.199,2.631-0.398,5.264-0.588,7.771c5.074-4.322,9.545-13.303,10.508-21.139
		c0.199-1.63,0.592-3.236,0.896-4.853c1.342-0.327,1.632,0.676,2.007,1.575c0.43,2.106,0.272,4.242,0.19,6.365
		c-0.063,1.587,0.006,2.985,1.914,3.425c0.637,0.34,1.154,0.747,0.891,1.587c-6.824,3.918-10.571,10.536-14.742,16.786
		c-2.123,3.182-0.822,6.715-1.11,10.086C292.455,276.598,292.982,277.789,290.994,277.73z"/>
	<path display="inline" fill-rule="evenodd" clip-rule="evenodd" fill="#FAF6EC" d="M195.952,284.699
		c-1.557-9.229-2.862-18.5-4.353-27.729c-1.05-6.498-2.12-13.237-5.552-19.156c0.862-2.355,2.612-4.463,2.014-7.225
		c2.664,6.622,2.017,14.003,4.707,20.619c4.372,10.75,4.134,22.232,5.336,33.486C197.387,284.697,196.669,284.697,195.952,284.699z"
		/>
	<path display="inline" fill-rule="evenodd" clip-rule="evenodd" fill="#F9F6EF" d="M239.119,303.73
		c-1.15-13.381-3.264-26.635-5.181-39.916c-0.413-0.996-0.946-2.047,0.911-2.02c0.583,1.357,1.138,2.727,1.754,4.068
		c0.917,1.996,1.654,0.643,2.408-0.16c1.857,0.039,1.451,1.209,1.158,2.32c-0.503,9.361-0.344,18.684,0.784,28.02
		c0.506,4.188-0.198,8.506,0.917,12.682c-0.58,0.014-1.159,0.025-1.738,0.037C238.726,307.299,240.178,305.262,239.119,303.73z"/>
	<path display="inline" fill-rule="evenodd" clip-rule="evenodd" fill="#FCF4E6" d="M199.274,209.838
		c0.973,7.49,5.596,13.404,9.018,19.73c3.71,6.859,6.567,14.034,9.747,21.095c-0.935,0.08-1.751,0.363-2.204,1.277
		c-6.245-12.972-12.489-25.945-18.732-38.917C197.494,211.736,197.744,210.351,199.274,209.838z"/>
	<path display="inline" fill-rule="evenodd" clip-rule="evenodd" fill="#F7E6D0" d="M227.855,230.573
		c1.48-8.928,2.96-17.855,4.44-26.784c0.838-0.219,1.281,0.274,1.643,0.913c-1.365,10.337-2.73,20.675-4.095,31.013
		C228.093,234.421,229.83,231.78,227.855,230.573z"/>
	<path display="inline" fill-rule="evenodd" clip-rule="evenodd" fill="#FCEFD8" d="M290.994,277.73
		c0.877-0.492,0.959-1.379,1.109-2.234c1.604,7.66,1.047,15.484,1.73,23.213c-1.814-0.838-1.846,0.295-1.846,1.605
		c0,1.447,0.299,3.115-1.835,3.457C291.77,295.135,290.373,286.4,290.994,277.73z"/>
	<path display="inline" fill-rule="evenodd" clip-rule="evenodd" fill="#F8EBD9" d="M278.055,239.821
		c-0.096-0.817-0.207-1.626-1.018-2.095c1.758-6.254,4.047-12.307,6.873-18.157c0.172,0.845,0.258,1.734,1.152,2.202
		C283.867,228.23,280.275,233.759,278.055,239.821z"/>
	<path display="inline" fill-rule="evenodd" clip-rule="evenodd" fill="#F4E6D1" d="M233.939,204.702
		c-0.548-0.305-1.096-0.609-1.644-0.913c0.783-4.172,1.567-8.345,2.348-12.518c0.303-1.619,0.878-3.362-1.646-3.737
		c1.708-2.546,3.192,1.672,4.866,0.161C236.555,193.364,235.247,199.033,233.939,204.702z"/>
	<path display="inline" fill-rule="evenodd" clip-rule="evenodd" fill="#F9ECD5" d="M307.065,219.788
		c-0.479,6.133-1.141,12.235-2.944,18.153c-0.16-0.872-0.256-1.779-1.166-2.269c0.984-6.37,1.968-12.739,2.951-19.109
		C306.186,217.676,305.855,219.009,307.065,219.788z"/>
	<path display="inline" fill-rule="evenodd" clip-rule="evenodd" fill="#F5E5CE" d="M234.85,261.795
		c-0.304,0.674-0.607,1.346-0.911,2.02c-2.522-5.787-3.305-12.051-4.948-18.079c0.357-0.703,0.714-1.406,1.071-2.109
		C232.317,249.509,233.758,255.605,234.85,261.795z"/>
	<path display="inline" fill-rule="evenodd" clip-rule="evenodd" fill="#FAE6CA" d="M306.801,247.563
		c3.051-2.309,5.518-5.356,9-7.122c0.043,0.778,0.086,1.557,0.13,2.335c-2.657,1.949-5.315,3.899-7.974,5.849
		C307.572,248.271,307.186,247.917,306.801,247.563z"/>
	<path display="inline" fill-rule="evenodd" clip-rule="evenodd" fill="#F8EAD5" d="M240.17,268.023
		c-0.189-0.871-0.256-1.805-1.158-2.32c2.973-9.658,5.93-19.323,8.923-28.975c1.003-3.234,1.55-6.433,0.47-9.793
		c-0.486-1.512-0.781-3.2,0.824-4.836c1.434,2.018,0.33,4.605,2.272,6.168c2.788-0.984,2.915-5,5.945-5.85
		c0.619,0.809,0.226,1.413-0.157,1.925c-8.602,11.498-11.326,25.296-15.09,38.675C241.701,264.791,241.35,266.557,240.17,268.023z"
		/>
	<path display="inline" fill-rule="evenodd" clip-rule="evenodd" fill="#F1DEC6" d="M292.139,253.893
		c-0.212-0.93-0.357-1.896-1.361-2.371c2.072-7.279,4.146-14.557,6.219-21.835c1.877-0.038,1.542,1.033,1.087,2.166
		C296.387,239.276,294.703,246.703,292.139,253.893z"/>
	<path display="inline" fill-rule="evenodd" clip-rule="evenodd" fill="#F3D1B2" d="M298.083,231.852
		c-0.11-0.849-0.195-1.709-1.087-2.165c1.358-1.892,0.342-4.626,3.012-7.241C299.979,226.345,299.139,229.113,298.083,231.852z"/>
</g>
</svg>
