<?xml version="1.0" encoding="utf-8"?>
<!-- Generator: Adobe Illustrator 16.0.3, SVG Export Plug-In . SVG Version: 6.00 Build 0)  -->
<!DOCTYPE svg PUBLIC "-//W3C//DTD SVG 1.1//EN" "http://www.w3.org/Graphics/SVG/1.1/DTD/svg11.dtd">
<svg version="1.1" id="Capa_1" xmlns="http://www.w3.org/2000/svg" xmlns:xlink="http://www.w3.org/1999/xlink" x="0px" y="0px"
	 width="422px" height="128.667px" viewBox="0 0 422 128.667" enable-background="new 0 0 422 128.667" xml:space="preserve">
<g>
	<rect x="-4.667" y="5.001" fill="none" width="489.333" height="189.333"/>
	<path fill="#516FCA" d="M6.583,5.001h4.8v41.25l47.55-41.25h6l-51.45,44.85l64.65,67.65h-6.6l-60-62.55v62.55h-4.95V5.001z"/>
	<path fill="#516FCA" d="M157.482,50.001v67.5h-4.8v-16.8c-2.801,5.7-7,10.2-12.6,13.5c-5.602,3.3-11.602,4.95-18,4.95
		c-9.802,0-18.202-3.474-25.2-10.426c-7.001-6.949-10.5-15.274-10.5-24.975c0-9.698,3.499-18.023,10.5-24.975
		c6.999-6.949,15.398-10.425,25.2-10.425c6.398,0,12.525,1.702,18.375,5.1c5.85,3.4,9.923,7.9,12.225,13.5v-16.95H157.482z
		 M91.182,83.9c0,8.4,3.075,15.676,9.225,21.825c6.15,6.15,13.449,9.226,21.9,9.226c8.449,0,15.675-3.075,21.675-9.226
		c6-6.149,9-13.448,9-21.899c0-8.449-3.026-15.773-9.075-21.975c-6.051-6.199-13.275-9.3-21.675-9.3s-15.675,3.127-21.825,9.375
		C94.257,68.177,91.182,75.501,91.182,83.9z"/>
	<path fill="#516FCA" d="M201.129,114.651v4.199c-7.102,0-13.151-2.374-18.15-7.125c-5.001-4.748-7.5-10.823-7.5-18.225v-88.5h4.8
		v88.5c0,6.101,2.025,11.151,6.075,15.15C190.404,112.651,195.329,114.651,201.129,114.651z"/>
	<path fill="#516FCA" d="M217.479,33.651c-2.902,0-4.35-1.35-4.35-4.05c0-2.7,1.448-4.05,4.35-4.05c2.898,0,4.35,1.35,4.35,4.05
		C221.828,32.301,220.377,33.651,217.479,33.651z M219.879,50.151v67.35h-4.801v-67.35H219.879z"/>
	<path fill="#516FCA" d="M295.252,52.701c4.25-2.899,9.426-4.35,15.525-4.35s11.449,2.201,16.051,6.6
		c4.598,4.401,6.9,10.35,6.9,17.85v44.7h-4.801v-44.7c0-5.799-1.9-10.624-5.699-14.475c-3.803-3.849-8.377-5.775-13.727-5.775
		s-10.102,2.002-14.25,6c-4.15,4.001-6.225,8.65-6.225,13.95v45h-4.799v-45c0-5.399-1.902-10.073-5.701-14.025
		c-3.801-3.949-8.4-5.925-13.799-5.925c-5.4,0-10.102,2.002-14.102,6c-4,4.001-6,8.65-6,13.95v45h-4.799v-67.5h4.799v9.45
		c2-3,4.975-5.6,8.926-7.8c3.949-2.198,8.049-3.3,12.301-3.3c4.248,0,8.324,1.477,12.225,4.425c3.9,2.951,6.75,6.776,8.549,11.475
		C288.127,59.451,291.002,55.603,295.252,52.701z"/>
	<path fill="#516FCA" d="M419.076,50.001v67.5h-4.801v-16.8c-2.801,5.7-7,10.2-12.6,13.5c-5.602,3.3-11.602,4.95-18,4.95
		c-9.801,0-18.201-3.474-25.199-10.426c-7.002-6.949-10.5-15.274-10.5-24.975c0-9.698,3.498-18.023,10.5-24.975
		c6.998-6.949,15.398-10.425,25.199-10.425c6.398,0,12.525,1.702,18.375,5.1c5.85,3.4,9.924,7.9,12.225,13.5v-16.95H419.076z
		 M352.775,83.9c0,8.4,3.076,15.676,9.227,21.825c6.148,6.15,13.447,9.226,21.898,9.226c8.449,0,15.676-3.075,21.676-9.226
		c6-6.149,9-13.448,9-21.899c0-8.449-3.025-15.773-9.074-21.975c-6.053-6.199-13.275-9.3-21.676-9.3s-15.676,3.127-21.824,9.375
		C355.852,68.177,352.775,75.501,352.775,83.9z"/>
</g>
<g>
</g>
<g>
</g>
<g>
</g>
<g>
</g>
<g>
</g>
</svg>
